<svg viewBox="0 0 2000 1000" xmlns="http://www.w3.org/2000/svg"><mask id="b" x="0" y="0" width="2000" height="1000"><path fill="url(#a)" d="M0 0h2000v1000H0z"/></mask><g style="transform-origin:center center" clip-rule="evenodd" stroke="#4c4e72" stroke-width="1.4" mask="url(#b)"><g fill-rule="evenodd"><path d="M50 29.147v57.666l49.997 28.836V57.982L50 29.147Z" fill="#4c4e7230" stroke-width=".46666199999999997"/><path d="M99.997 115.649 150 86.813V29.147L99.997 57.982v57.667Z" fill="#4c4e7222" stroke-width=".46666199999999997"/><path d="M50 29.147 99.997.316 150 29.146 99.997 57.983 50 29.147Z" fill="#4c4e7211" stroke-width=".46666199999999997"/></g><g fill="none"><path d="M150 29.147v57.666l49.997 28.836V57.982L150 29.147ZM199.997 115.649 250 86.813V29.147l-50.003 28.835v57.667Z" stroke-width=".46666199999999997"/><path d="M150 29.147 199.997.316 250 29.146l-50.003 28.836L150 29.147Z" stroke-width=".46666199999999997"/></g><g fill="none"><path d="M250 29.147v57.666l49.997 28.836V57.982L250 29.147ZM299.997 115.649 350 86.813V29.147l-50.003 28.835v57.667Z" stroke-width=".46666199999999997"/><path d="M250 29.147 299.997.316 350 29.146l-50.003 28.836L250 29.147Z" stroke-width=".46666199999999997"/></g><g fill-rule="evenodd"><path d="M350 29.147v57.666l49.997 28.836V57.982L350 29.147Z" fill="#4c4e7286" stroke-width=".46666199999999997"/><path d="M399.997 115.649 450 86.813V29.147l-50.003 28.835v57.667Z" fill="#4c4e725e" stroke-width=".46666199999999997"/><path d="M350 29.147 399.997.316 450 29.146l-50.003 28.836L350 29.147Z" fill="#4c4e722f" stroke-width=".46666199999999997"/></g><g fill="none"><path d="M450 29.147v57.666l49.997 28.836V57.982L450 29.147ZM499.997 115.649 550 86.813V29.147l-50.003 28.835v57.667Z" stroke-width=".46666199999999997"/><path d="M450 29.147 499.997.316 550 29.146l-50.003 28.836L450 29.147Z" stroke-width=".46666199999999997"/></g><g fill="none"><path d="M550 29.147v57.666l49.997 28.836V57.982L550 29.147ZM599.997 115.649 650 86.813V29.147l-50.003 28.835v57.667Z" stroke-width=".46666199999999997"/><path d="M550 29.147 599.997.316 650 29.146l-50.003 28.836L550 29.147Z" stroke-width=".46666199999999997"/></g><g fill="none"><path d="M650 29.147v57.666l49.997 28.836V57.982L650 29.147ZM699.997 115.649 750 86.813V29.147l-50.003 28.835v57.667Z" stroke-width=".46666199999999997"/><path d="M650 29.147 699.997.316 750 29.146l-50.003 28.836L650 29.147Z" stroke-width=".46666199999999997"/></g><g fill="none"><path d="M750 29.147v57.666l49.997 28.836V57.982L750 29.147ZM799.997 115.649 850 86.813V29.147l-50.003 28.835v57.667Z" stroke-width=".46666199999999997"/><path d="M750 29.147 799.997.316 850 29.146l-50.003 28.836L750 29.147Z" stroke-width=".46666199999999997"/></g><g fill="none"><path d="M850 29.147v57.666l49.997 28.836V57.982L850 29.147ZM899.997 115.649 950 86.813V29.147l-50.003 28.835v57.667Z" stroke-width=".46666199999999997"/><path d="M850 29.147 899.997.316 950 29.146l-50.003 28.836L850 29.147Z" stroke-width=".46666199999999997"/></g><g fill="none"><path d="M950 29.147v57.666l49.997 28.836V57.982L950 29.147ZM999.997 115.649 1050 86.813V29.147l-50.003 28.835v57.667Z" stroke-width=".46666199999999997"/><path d="M950 29.147 999.997.316 1050 29.146l-50.003 28.836L950 29.147Z" stroke-width=".46666199999999997"/></g><g fill="none"><path d="M1050 29.147v57.666l49.997 28.836V57.982L1050 29.147ZM1099.997 115.649 1150 86.813V29.147l-50.003 28.835v57.667Z" stroke-width=".46666199999999997"/><path d="M1050 29.147 1099.997.316 1150 29.146l-50.003 28.836L1050 29.147Z" stroke-width=".46666199999999997"/></g><g fill-rule="evenodd"><path d="M1150 29.147v57.666l49.997 28.836V57.982L1150 29.147Z" fill="#4c4e72e9" stroke-width=".46666199999999997"/><path d="M1199.997 115.649 1250 86.813V29.147l-50.003 28.835v57.667Z" fill="#4c4e72a3" stroke-width=".46666199999999997"/><path d="M1150 29.147 1199.997.316 1250 29.146l-50.003 28.836L1150 29.147Z" fill="#4c4e7252" stroke-width=".46666199999999997"/></g><g fill-rule="evenodd"><path d="M1250 29.147v57.666l49.997 28.836V57.982L1250 29.147Z" fill="#4c4e72dc" stroke-width=".46666199999999997"/><path d="M1299.997 115.649 1350 86.813V29.147l-50.003 28.835v57.667Z" fill="#4c4e729a" stroke-width=".46666199999999997"/><path d="M1250 29.147 1299.997.316 1350 29.146l-50.003 28.836L1250 29.147Z" fill="#4c4e724d" stroke-width=".46666199999999997"/></g><g fill="none"><path d="M1350 29.147v57.666l49.997 28.836V57.982L1350 29.147ZM1399.997 115.649 1450 86.813V29.147l-50.003 28.835v57.667Z" stroke-width=".46666199999999997"/><path d="M1350 29.147 1399.997.316 1450 29.146l-50.003 28.836L1350 29.147Z" stroke-width=".46666199999999997"/></g><g fill="none"><path d="M1450 29.147v57.666l49.997 28.836V57.982L1450 29.147ZM1499.997 115.649 1550 86.813V29.147l-50.003 28.835v57.667Z" stroke-width=".46666199999999997"/><path d="M1450 29.147 1499.997.316 1550 29.146l-50.003 28.836L1450 29.147Z" stroke-width=".46666199999999997"/></g><g fill-rule="evenodd"><path d="M1550 29.147v57.666l49.997 28.836V57.982L1550 29.147Z" fill="#4c4e726c" stroke-width=".46666199999999997"/><path d="M1599.997 115.649 1650 86.813V29.147l-50.003 28.835v57.667Z" fill="#4c4e724b" stroke-width=".46666199999999997"/><path d="M1550 29.147 1599.997.316 1650 29.146l-50.003 28.836L1550 29.147Z" fill="#4c4e7226" stroke-width=".46666199999999997"/></g><g fill="none"><path d="M1650 29.147v57.666l49.997 28.836V57.982L1650 29.147ZM1699.997 115.649 1750 86.813V29.147l-50.003 28.835v57.667Z" stroke-width=".46666199999999997"/><path d="M1650 29.147 1699.997.316 1750 29.146l-50.003 28.836L1650 29.147Z" stroke-width=".46666199999999997"/></g><g fill-rule="evenodd"><path d="M1750 29.147v57.666l49.997 28.836V57.982L1750 29.147Z" fill="#4c4e7226" stroke-width=".46666199999999997"/><path d="M1799.997 115.649 1850 86.813V29.147l-50.003 28.835v57.667Z" fill="#4c4e721b" stroke-width=".46666199999999997"/><path d="M1750 29.147 1799.997.316 1850 29.146l-50.003 28.836L1750 29.147Z" fill="#4c4e720d" stroke-width=".46666199999999997"/></g><g fill="none"><path d="M1850 29.147v57.666l49.997 28.836V57.982L1850 29.147ZM1899.997 115.649 1950 86.813V29.147l-50.003 28.835v57.667Z" stroke-width=".46666199999999997"/><path d="M1850 29.147 1899.997.316 1950 29.146l-50.003 28.836L1850 29.147Z" stroke-width=".46666199999999997"/></g><g fill-rule="evenodd"><path d="M1950 29.147v57.666l49.997 28.836V57.982L1950 29.147Z" fill="#4c4e7298" stroke-width=".46666199999999997"/><path d="M1999.997 115.649 2050 86.813V29.147l-50.003 28.835v57.667Z" fill="#4c4e726a" stroke-width=".46666199999999997"/><path d="M1950 29.147 1999.997.316 2050 29.146l-50.003 28.836L1950 29.147Z" fill="#4c4e7235" stroke-width=".46666199999999997"/></g><g fill="none"><path d="M0 115.813v57.667l49.997 28.836v-57.667L0 115.813ZM49.997 202.316 100 173.48v-57.667L49.997 144.65v57.667Z" stroke-width=".46666199999999997"/><path d="m0 115.813 49.997-28.83L100 115.812 49.997 144.65 0 115.813Z" stroke-width=".46666199999999997"/></g><g fill="none"><path d="M100 115.813v57.667l49.997 28.836v-57.667L100 115.813ZM149.997 202.316 200 173.48v-57.667l-50.003 28.836v57.667ZM100 115.813l49.997-28.83L200 115.812l-50.003 28.836L100 115.813Z" stroke-width=".46666199999999997"/></g><g fill="none"><path d="M200 115.813v57.667l49.997 28.836v-57.667L200 115.813ZM249.997 202.316 300 173.48v-57.667l-50.003 28.836v57.667ZM200 115.813l49.997-28.83L300 115.812l-50.003 28.836L200 115.813Z" stroke-width=".46666199999999997"/></g><g fill="none"><path d="M300 115.813v57.667l49.997 28.836v-57.667L300 115.813ZM349.997 202.316 400 173.48v-57.667l-50.003 28.836v57.667ZM300 115.813l49.997-28.83L400 115.812l-50.003 28.836L300 115.813Z" stroke-width=".46666199999999997"/></g><g fill="none"><path d="M400 115.813v57.667l49.997 28.836v-57.667L400 115.813ZM449.997 202.316 500 173.48v-57.667l-50.003 28.836v57.667ZM400 115.813l49.997-28.83L500 115.812l-50.003 28.836L400 115.813Z" stroke-width=".46666199999999997"/></g><g fill-rule="evenodd"><path d="M500 115.813v57.667l49.997 28.836v-57.667L500 115.813Z" fill="#4c4e7228" stroke-width=".46666199999999997"/><path d="M549.997 202.316 600 173.48v-57.667l-50.003 28.836v57.667Z" fill="#4c4e721c" stroke-width=".46666199999999997"/><path d="m500 115.813 49.997-28.83L600 115.812l-50.003 28.836L500 115.813Z" fill="#4c4e720e" stroke-width=".46666199999999997"/></g><g fill="none"><path d="M600 115.813v57.667l49.997 28.836v-57.667L600 115.813ZM649.997 202.316 700 173.48v-57.667l-50.003 28.836v57.667ZM600 115.813l49.997-28.83L700 115.812l-50.003 28.836L600 115.813Z" stroke-width=".46666199999999997"/></g><g fill="none"><path d="M700 115.813v57.667l49.997 28.836v-57.667L700 115.813ZM749.997 202.316 800 173.48v-57.667l-50.003 28.836v57.667ZM700 115.813l49.997-28.83L800 115.812l-50.003 28.836L700 115.813Z" stroke-width=".46666199999999997"/></g><g fill="none"><path d="M800 115.813v57.667l49.997 28.836v-57.667L800 115.813ZM849.997 202.316 900 173.48v-57.667l-50.003 28.836v57.667ZM800 115.813l49.997-28.83L900 115.812l-50.003 28.836L800 115.813Z" stroke-width=".46666199999999997"/></g><g fill="none"><path d="M900 115.813v57.667l49.997 28.836v-57.667L900 115.813ZM949.997 202.316 1000 173.48v-57.667l-50.003 28.836v57.667Z" stroke-width=".46666199999999997"/><path d="m900 115.813 49.997-28.83 50.003 28.83-50.003 28.836L900 115.813Z" stroke-width=".46666199999999997"/></g><g fill-rule="evenodd"><path d="M1000 115.813v57.667l49.997 28.836v-57.667L1000 115.813Z" fill="#4c4e7241" stroke-width=".46666199999999997"/><path d="M1049.997 202.316 1100 173.48v-57.667l-50.003 28.836v57.667Z" fill="#4c4e722d" stroke-width=".46666199999999997"/><path d="m1000 115.813 49.997-28.83 50.003 28.83-50.003 28.836L1000 115.813Z" fill="#4c4e7217" stroke-width=".46666199999999997"/></g><g fill="none"><path d="M1100 115.813v57.667l49.997 28.836v-57.667L1100 115.813ZM1149.997 202.316 1200 173.48v-57.667l-50.003 28.836v57.667Z" stroke-width=".46666199999999997"/><path d="m1100 115.813 49.997-28.83 50.003 28.83-50.003 28.836L1100 115.813Z" stroke-width=".46666199999999997"/></g><g fill="none"><path d="M1200 115.813v57.667l49.997 28.836v-57.667L1200 115.813ZM1249.997 202.316 1300 173.48v-57.667l-50.003 28.836v57.667Z" stroke-width=".46666199999999997"/><path d="m1200 115.813 49.997-28.83 50.003 28.83-50.003 28.836L1200 115.813Z" stroke-width=".46666199999999997"/></g><g fill="none"><path d="M1300 115.813v57.667l49.997 28.836v-57.667L1300 115.813ZM1349.997 202.316 1400 173.48v-57.667l-50.003 28.836v57.667Z" stroke-width=".46666199999999997"/><path d="m1300 115.813 49.997-28.83 50.003 28.83-50.003 28.836L1300 115.813Z" stroke-width=".46666199999999997"/></g><g fill-rule="evenodd"><path d="M1400 115.813v57.667l49.997 28.836v-57.667L1400 115.813Z" fill="#4c4e726c" stroke-width=".46666199999999997"/><path d="M1449.997 202.316 1500 173.48v-57.667l-50.003 28.836v57.667Z" fill="#4c4e724b" stroke-width=".46666199999999997"/><path d="m1400 115.813 49.997-28.83 50.003 28.83-50.003 28.836L1400 115.813Z" fill="#4c4e7226" stroke-width=".46666199999999997"/></g><g fill-rule="evenodd"><path d="M1500 115.813v57.667l49.997 28.836v-57.667L1500 115.813Z" fill="#4c4e72e3" stroke-width=".46666199999999997"/><path d="M1549.997 202.316 1600 173.48v-57.667l-50.003 28.836v57.667Z" fill="#4c4e729f" stroke-width=".46666199999999997"/><path d="m1500 115.813 49.997-28.83 50.003 28.83-50.003 28.836L1500 115.813Z" fill="#4c4e7250" stroke-width=".46666199999999997"/></g><g fill-rule="evenodd"><path d="M1600 115.813v57.667l49.997 28.836v-57.667L1600 115.813Z" fill="#4c4e72c7" stroke-width=".46666199999999997"/><path d="M1649.997 202.316 1700 173.48v-57.667l-50.003 28.836v57.667Z" fill="#4c4e728b" stroke-width=".46666199999999997"/><path d="m1600 115.813 49.997-28.83 50.003 28.83-50.003 28.836L1600 115.813Z" fill="#4c4e7246" stroke-width=".46666199999999997"/></g><g fill="none"><path d="M1700 115.813v57.667l49.997 28.836v-57.667L1700 115.813ZM1749.997 202.316 1800 173.48v-57.667l-50.003 28.836v57.667Z" stroke-width=".46666199999999997"/><path d="m1700 115.813 49.997-28.83 50.003 28.83-50.003 28.836L1700 115.813Z" stroke-width=".46666199999999997"/></g><g fill="none"><path d="M1800 115.813v57.667l49.997 28.836v-57.667L1800 115.813ZM1849.997 202.316 1900 173.48v-57.667l-50.003 28.836v57.667Z" stroke-width=".46666199999999997"/><path d="m1800 115.813 49.997-28.83 50.003 28.83-50.003 28.836L1800 115.813Z" stroke-width=".46666199999999997"/></g><g fill="none"><path d="M1900 115.813v57.667l49.997 28.836v-57.667L1900 115.813ZM1949.997 202.316 2000 173.48v-57.667l-50.003 28.836v57.667Z" stroke-width=".46666199999999997"/><path d="m1900 115.813 49.997-28.83 50.003 28.83-50.003 28.836L1900 115.813Z" stroke-width=".46666199999999997"/></g><g fill-rule="evenodd"><path d="M50 202.48v57.667l49.997 28.835v-57.666L50 202.48Z" fill="#4c4e7231" stroke-width=".46666199999999997"/><path d="M99.997 288.982 150 260.147V202.48l-50.003 28.836v57.666Z" fill="#4c4e7222" stroke-width=".46666199999999997"/><path d="m50 202.48 49.997-28.83L150 202.48l-50.003 28.836L50 202.48Z" fill="#4c4e7211" stroke-width=".46666199999999997"/></g><g fill-rule="evenodd"><path d="M150 202.48v57.667l49.997 28.835v-57.666L150 202.48Z" fill="#4c4e72ea" stroke-width=".46666199999999997"/><path d="M199.997 288.982 250 260.147V202.48l-50.003 28.836v57.666Z" fill="#4c4e72a4" stroke-width=".46666199999999997"/><path d="m150 202.48 49.997-28.83L250 202.48l-50.003 28.836L150 202.48Z" fill="#4c4e7252" stroke-width=".46666199999999997"/></g><g fill="none"><path d="M250 202.48v57.667l49.997 28.835v-57.666L250 202.48ZM299.997 288.982 350 260.147V202.48l-50.003 28.836v57.666Z" stroke-width=".46666199999999997"/><path d="m250 202.48 49.997-28.83L350 202.48l-50.003 28.836L250 202.48Z" stroke-width=".46666199999999997"/></g><g fill="none"><path d="M350 202.48v57.667l49.997 28.835v-57.666L350 202.48ZM399.997 288.982 450 260.147V202.48l-50.003 28.836v57.666Z" stroke-width=".46666199999999997"/><path d="m350 202.48 49.997-28.83L450 202.48l-50.003 28.836L350 202.48Z" stroke-width=".46666199999999997"/></g><g fill="none"><path d="M450 202.48v57.667l49.997 28.835v-57.666L450 202.48ZM499.997 288.982 550 260.147V202.48l-50.003 28.836v57.666Z" stroke-width=".46666199999999997"/><path d="m450 202.48 49.997-28.83L550 202.48l-50.003 28.836L450 202.48Z" stroke-width=".46666199999999997"/></g><g fill="none"><path d="M550 202.48v57.667l49.997 28.835v-57.666L550 202.48ZM599.997 288.982 650 260.147V202.48l-50.003 28.836v57.666Z" stroke-width=".46666199999999997"/><path d="m550 202.48 49.997-28.83L650 202.48l-50.003 28.836L550 202.48Z" stroke-width=".46666199999999997"/></g><g fill="none"><path d="M650 202.48v57.667l49.997 28.835v-57.666L650 202.48ZM699.997 288.982 750 260.147V202.48l-50.003 28.836v57.666Z" stroke-width=".46666199999999997"/><path d="m650 202.48 49.997-28.83L750 202.48l-50.003 28.836L650 202.48Z" stroke-width=".46666199999999997"/></g><g fill-rule="evenodd"><path d="M750 202.48v57.667l49.997 28.835v-57.666L750 202.48Z" fill="#4c4e7291" stroke-width=".46666199999999997"/><path d="M799.997 288.982 850 260.147V202.48l-50.003 28.836v57.666Z" fill="#4c4e7265" stroke-width=".46666199999999997"/><path d="m750 202.48 49.997-28.83L850 202.48l-50.003 28.836L750 202.48Z" fill="#4c4e7233" stroke-width=".46666199999999997"/></g><g fill="none"><path d="M850 202.48v57.667l49.997 28.835v-57.666L850 202.48ZM899.997 288.982 950 260.147V202.48l-50.003 28.836v57.666Z" stroke-width=".46666199999999997"/><path d="m850 202.48 49.997-28.83L950 202.48l-50.003 28.836L850 202.48Z" stroke-width=".46666199999999997"/></g><g fill="none"><path d="M950 202.48v57.667l49.997 28.835v-57.666L950 202.48ZM999.997 288.982 1050 260.147V202.48l-50.003 28.836v57.666Z" stroke-width=".46666199999999997"/><path d="m950 202.48 49.997-28.83L1050 202.48l-50.003 28.836L950 202.48Z" stroke-width=".46666199999999997"/></g><g fill="none"><path d="M1050 202.48v57.667l49.997 28.835v-57.666L1050 202.48ZM1099.997 288.982 1150 260.147V202.48l-50.003 28.836v57.666Z" stroke-width=".46666199999999997"/><path d="m1050 202.48 49.997-28.83L1150 202.48l-50.003 28.836L1050 202.48Z" stroke-width=".46666199999999997"/></g><g fill="none"><path d="M1150 202.48v57.667l49.997 28.835v-57.666L1150 202.48ZM1199.997 288.982 1250 260.147V202.48l-50.003 28.836v57.666Z" stroke-width=".46666199999999997"/><path d="m1150 202.48 49.997-28.83L1250 202.48l-50.003 28.836L1150 202.48Z" stroke-width=".46666199999999997"/></g><g fill="none"><path d="M1250 202.48v57.667l49.997 28.835v-57.666L1250 202.48ZM1299.997 288.982 1350 260.147V202.48l-50.003 28.836v57.666Z" stroke-width=".46666199999999997"/><path d="m1250 202.48 49.997-28.83L1350 202.48l-50.003 28.836L1250 202.48Z" stroke-width=".46666199999999997"/></g><g fill="none"><path d="M1350 202.48v57.667l49.997 28.835v-57.666L1350 202.48ZM1399.997 288.982 1450 260.147V202.48l-50.003 28.836v57.666Z" stroke-width=".46666199999999997"/><path d="m1350 202.48 49.997-28.83L1450 202.48l-50.003 28.836L1350 202.48Z" stroke-width=".46666199999999997"/></g><g fill="none"><path d="M1450 202.48v57.667l49.997 28.835v-57.666L1450 202.48ZM1499.997 288.982 1550 260.147V202.48l-50.003 28.836v57.666Z" stroke-width=".46666199999999997"/><path d="m1450 202.48 49.997-28.83L1550 202.48l-50.003 28.836L1450 202.48Z" stroke-width=".46666199999999997"/></g><g fill="none"><path d="M1550 202.48v57.667l49.997 28.835v-57.666L1550 202.48ZM1599.997 288.982 1650 260.147V202.48l-50.003 28.836v57.666Z" stroke-width=".46666199999999997"/><path d="m1550 202.48 49.997-28.83L1650 202.48l-50.003 28.836L1550 202.48Z" stroke-width=".46666199999999997"/></g><g fill="none"><path d="M1650 202.48v57.667l49.997 28.835v-57.666L1650 202.48ZM1699.997 288.982 1750 260.147V202.48l-50.003 28.836v57.666Z" stroke-width=".46666199999999997"/><path d="m1650 202.48 49.997-28.83L1750 202.48l-50.003 28.836L1650 202.48Z" stroke-width=".46666199999999997"/></g><g fill="none"><path d="M1750 202.48v57.667l49.997 28.835v-57.666L1750 202.48ZM1799.997 288.982 1850 260.147V202.48l-50.003 28.836v57.666Z" stroke-width=".46666199999999997"/><path d="m1750 202.48 49.997-28.83L1850 202.48l-50.003 28.836L1750 202.48Z" stroke-width=".46666199999999997"/></g><g fill-rule="evenodd"><path d="M1850 202.48v57.667l49.997 28.835v-57.666L1850 202.48Z" fill="#4c4e72cf" stroke-width=".46666199999999997"/><path d="M1899.997 288.982 1950 260.147V202.48l-50.003 28.836v57.666Z" fill="#4c4e7291" stroke-width=".46666199999999997"/><path d="m1850 202.48 49.997-28.83L1950 202.48l-50.003 28.836L1850 202.48Z" fill="#4c4e7248" stroke-width=".46666199999999997"/></g><g fill-rule="evenodd"><path d="M1950 202.48v57.667l49.997 28.835v-57.666L1950 202.48Z" fill="#4c4e72bd" stroke-width=".46666199999999997"/><path d="M1999.997 288.982 2050 260.147V202.48l-50.003 28.836v57.666Z" fill="#4c4e7284" stroke-width=".46666199999999997"/><path d="m1950 202.48 49.997-28.83L2050 202.48l-50.003 28.836L1950 202.48Z" fill="#4c4e7242" stroke-width=".46666199999999997"/></g><g fill="none"><path d="M0 289.147v57.666l49.997 28.836v-57.667L0 289.147ZM49.997 375.649 100 346.813v-57.666l-50.003 28.835v57.667Z" stroke-width=".46666199999999997"/><path d="m0 289.147 49.997-28.831L100 289.146l-50.003 28.836L0 289.147Z" stroke-width=".46666199999999997"/></g><g fill="none"><path d="M100 289.147v57.666l49.997 28.836v-57.667L100 289.147ZM149.997 375.649 200 346.813v-57.666l-50.003 28.835v57.667Z" stroke-width=".46666199999999997"/><path d="m100 289.147 49.997-28.831L200 289.146l-50.003 28.836L100 289.147Z" stroke-width=".46666199999999997"/></g><g fill="none"><path d="M200 289.147v57.666l49.997 28.836v-57.667L200 289.147ZM249.997 375.649 300 346.813v-57.666l-50.003 28.835v57.667Z" stroke-width=".46666199999999997"/><path d="m200 289.147 49.997-28.831L300 289.146l-50.003 28.836L200 289.147Z" stroke-width=".46666199999999997"/></g><g fill="none"><path d="M300 289.147v57.666l49.997 28.836v-57.667L300 289.147ZM349.997 375.649 400 346.813v-57.666l-50.003 28.835v57.667Z" stroke-width=".46666199999999997"/><path d="m300 289.147 49.997-28.831L400 289.146l-50.003 28.836L300 289.147Z" stroke-width=".46666199999999997"/></g><g fill-rule="evenodd"><path d="M400 289.147v57.666l49.997 28.836v-57.667L400 289.147Z" fill="#4c4e72ed" stroke-width=".46666199999999997"/><path d="M449.997 375.649 500 346.813v-57.666l-50.003 28.835v57.667Z" fill="#4c4e72a6" stroke-width=".46666199999999997"/><path d="m400 289.147 49.997-28.831L500 289.146l-50.003 28.836L400 289.147Z" fill="#4c4e7253" stroke-width=".46666199999999997"/></g><g fill-rule="evenodd"><path d="M500 289.147v57.666l49.997 28.836v-57.667L500 289.147Z" fill="#4c4e727c" stroke-width=".46666199999999997"/><path d="M549.997 375.649 600 346.813v-57.666l-50.003 28.835v57.667Z" fill="#4c4e7256" stroke-width=".46666199999999997"/><path d="m500 289.147 49.997-28.831L600 289.146l-50.003 28.836L500 289.147Z" fill="#4c4e722b" stroke-width=".46666199999999997"/></g><g fill="none"><path d="M600 289.147v57.666l49.997 28.836v-57.667L600 289.147ZM649.997 375.649 700 346.813v-57.666l-50.003 28.835v57.667Z" stroke-width=".46666199999999997"/><path d="m600 289.147 49.997-28.831L700 289.146l-50.003 28.836L600 289.147Z" stroke-width=".46666199999999997"/></g><g fill="none"><path d="M700 289.147v57.666l49.997 28.836v-57.667L700 289.147ZM749.997 375.649 800 346.813v-57.666l-50.003 28.835v57.667Z" stroke-width=".46666199999999997"/><path d="m700 289.147 49.997-28.831L800 289.146l-50.003 28.836L700 289.147Z" stroke-width=".46666199999999997"/></g><g fill="none"><path d="M800 289.147v57.666l49.997 28.836v-57.667L800 289.147ZM849.997 375.649 900 346.813v-57.666l-50.003 28.835v57.667Z" stroke-width=".46666199999999997"/><path d="m800 289.147 49.997-28.831L900 289.146l-50.003 28.836L800 289.147Z" stroke-width=".46666199999999997"/></g><g fill-rule="evenodd"><path d="M900 289.147v57.666l49.997 28.836v-57.667L900 289.147Z" fill="#4c4e729e" stroke-width=".46666199999999997"/><path d="M949.997 375.649 1000 346.813v-57.666l-50.003 28.835v57.667Z" fill="#4c4e726f" stroke-width=".46666199999999997"/><path d="m900 289.147 49.997-28.831 50.003 28.83-50.003 28.836L900 289.147Z" fill="#4c4e7237" stroke-width=".46666199999999997"/></g><g fill="none"><path d="M1000 289.147v57.666l49.997 28.836v-57.667L1000 289.147ZM1049.997 375.649 1100 346.813v-57.666l-50.003 28.835v57.667Z" stroke-width=".46666199999999997"/><path d="m1000 289.147 49.997-28.831 50.003 28.83-50.003 28.836L1000 289.147Z" stroke-width=".46666199999999997"/></g><g fill="none"><path d="M1100 289.147v57.666l49.997 28.836v-57.667L1100 289.147ZM1149.997 375.649 1200 346.813v-57.666l-50.003 28.835v57.667Z" stroke-width=".46666199999999997"/><path d="m1100 289.147 49.997-28.831 50.003 28.83-50.003 28.836L1100 289.147Z" stroke-width=".46666199999999997"/></g><g fill-rule="evenodd"><path d="M1200 289.147v57.666l49.997 28.836v-57.667L1200 289.147Z" fill="#4c4e72bf" stroke-width=".46666199999999997"/><path d="M1249.997 375.649 1300 346.813v-57.666l-50.003 28.835v57.667Z" fill="#4c4e7286" stroke-width=".46666199999999997"/><path d="m1200 289.147 49.997-28.831 50.003 28.83-50.003 28.836L1200 289.147Z" fill="#4c4e7243" stroke-width=".46666199999999997"/></g><g fill-rule="evenodd"><path d="M1300 289.147v57.666l49.997 28.836v-57.667L1300 289.147Z" fill="#4c4e72c8" stroke-width=".46666199999999997"/><path d="M1349.997 375.649 1400 346.813v-57.666l-50.003 28.835v57.667Z" fill="#4c4e728c" stroke-width=".46666199999999997"/><path d="m1300 289.147 49.997-28.831 50.003 28.83-50.003 28.836L1300 289.147Z" fill="#4c4e7246" stroke-width=".46666199999999997"/></g><g fill="none"><path d="M1400 289.147v57.666l49.997 28.836v-57.667L1400 289.147ZM1449.997 375.649 1500 346.813v-57.666l-50.003 28.835v57.667Z" stroke-width=".46666199999999997"/><path d="m1400 289.147 49.997-28.831 50.003 28.83-50.003 28.836L1400 289.147Z" stroke-width=".46666199999999997"/></g><g fill="none"><path d="M1500 289.147v57.666l49.997 28.836v-57.667L1500 289.147ZM1549.997 375.649 1600 346.813v-57.666l-50.003 28.835v57.667Z" stroke-width=".46666199999999997"/><path d="m1500 289.147 49.997-28.831 50.003 28.83-50.003 28.836L1500 289.147Z" stroke-width=".46666199999999997"/></g><g fill-rule="evenodd"><path d="M1600 289.147v57.666l49.997 28.836v-57.667L1600 289.147Z" fill="#4c4e7247" stroke-width=".46666199999999997"/><path d="M1649.997 375.649 1700 346.813v-57.666l-50.003 28.835v57.667Z" fill="#4c4e7231" stroke-width=".46666199999999997"/><path d="m1600 289.147 49.997-28.831 50.003 28.83-50.003 28.836L1600 289.147Z" fill="#4c4e7219" stroke-width=".46666199999999997"/></g><g fill="none"><path d="M1700 289.147v57.666l49.997 28.836v-57.667L1700 289.147ZM1749.997 375.649 1800 346.813v-57.666l-50.003 28.835v57.667Z" stroke-width=".46666199999999997"/><path d="m1700 289.147 49.997-28.831 50.003 28.83-50.003 28.836L1700 289.147Z" stroke-width=".46666199999999997"/></g><g fill-rule="evenodd"><path d="M1800 289.147v57.666l49.997 28.836v-57.667L1800 289.147Z" fill="#4c4e72e4" stroke-width=".46666199999999997"/><path d="M1849.997 375.649 1900 346.813v-57.666l-50.003 28.835v57.667Z" fill="#4c4e72a0" stroke-width=".46666199999999997"/><path d="m1800 289.147 49.997-28.831 50.003 28.83-50.003 28.836L1800 289.147Z" fill="#4c4e7250" stroke-width=".46666199999999997"/></g><g fill="none"><path d="M1900 289.147v57.666l49.997 28.836v-57.667L1900 289.147ZM1949.997 375.649 2000 346.813v-57.666l-50.003 28.835v57.667Z" stroke-width=".46666199999999997"/><path d="m1900 289.147 49.997-28.831 50.003 28.83-50.003 28.836L1900 289.147Z" stroke-width=".46666199999999997"/></g><g fill="none"><path d="M50 375.813v57.667l49.997 28.836v-57.667L50 375.813ZM99.997 462.316 150 433.48v-57.667L99.997 404.65v57.667Z" stroke-width=".46666199999999997"/><path d="m50 375.813 49.997-28.83L150 375.812 99.997 404.65 50 375.813Z" stroke-width=".46666199999999997"/></g><g fill="none"><path d="M150 375.813v57.667l49.997 28.836v-57.667L150 375.813ZM199.997 462.316 250 433.48v-57.667l-50.003 28.836v57.667ZM150 375.813l49.997-28.83L250 375.812l-50.003 28.836L150 375.813Z" stroke-width=".46666199999999997"/></g><g fill="none"><path d="M250 375.813v57.667l49.997 28.836v-57.667L250 375.813ZM299.997 462.316 350 433.48v-57.667l-50.003 28.836v57.667ZM250 375.813l49.997-28.83L350 375.812l-50.003 28.836L250 375.813Z" stroke-width=".46666199999999997"/></g><g fill="none"><path d="M350 375.813v57.667l49.997 28.836v-57.667L350 375.813ZM399.997 462.316 450 433.48v-57.667l-50.003 28.836v57.667ZM350 375.813l49.997-28.83L450 375.812l-50.003 28.836L350 375.813Z" stroke-width=".46666199999999997"/></g><g fill-rule="evenodd"><path d="M450 375.813v57.667l49.997 28.836v-57.667L450 375.813Z" fill="#4c4e72f0" stroke-width=".46666199999999997"/><path d="M499.997 462.316 550 433.48v-57.667l-50.003 28.836v57.667Z" fill="#4c4e72a8" stroke-width=".46666199999999997"/><path d="m450 375.813 49.997-28.83L550 375.812l-50.003 28.836L450 375.813Z" fill="#4c4e7254" stroke-width=".46666199999999997"/></g><g fill="none"><path d="M550 375.813v57.667l49.997 28.836v-57.667L550 375.813ZM599.997 462.316 650 433.48v-57.667l-50.003 28.836v57.667ZM550 375.813l49.997-28.83L650 375.812l-50.003 28.836L550 375.813Z" stroke-width=".46666199999999997"/></g><g fill-rule="evenodd"><path d="M650 375.813v57.667l49.997 28.836v-57.667L650 375.813Z" fill="#4c4e72d9" stroke-width=".46666199999999997"/><path d="M699.997 462.316 750 433.48v-57.667l-50.003 28.836v57.667Z" fill="#4c4e7298" stroke-width=".46666199999999997"/><path d="m650 375.813 49.997-28.83L750 375.812l-50.003 28.836L650 375.813Z" fill="#4c4e724c" stroke-width=".46666199999999997"/></g><g fill="none"><path d="M750 375.813v57.667l49.997 28.836v-57.667L750 375.813ZM799.997 462.316 850 433.48v-57.667l-50.003 28.836v57.667ZM750 375.813l49.997-28.83L850 375.812l-50.003 28.836L750 375.813Z" stroke-width=".46666199999999997"/></g><g fill-rule="evenodd"><path d="M850 375.813v57.667l49.997 28.836v-57.667L850 375.813Z" fill="#4c4e7284" stroke-width=".46666199999999997"/><path d="M899.997 462.316 950 433.48v-57.667l-50.003 28.836v57.667Z" fill="#4c4e725d" stroke-width=".46666199999999997"/><path d="m850 375.813 49.997-28.83L950 375.812l-50.003 28.836L850 375.813Z" fill="#4c4e722e" stroke-width=".46666199999999997"/></g><g fill-rule="evenodd"><path d="M950 375.813v57.667l49.997 28.836v-57.667L950 375.813Z" fill="#4c4e7228" stroke-width=".46666199999999997"/><path d="M999.997 462.316 1050 433.48v-57.667l-50.003 28.836v57.667Z" fill="#4c4e721c" stroke-width=".46666199999999997"/><path d="m950 375.813 49.997-28.83 50.003 28.83-50.003 28.836L950 375.813Z" fill="#4c4e720e" stroke-width=".46666199999999997"/></g><g fill="none"><path d="M1050 375.813v57.667l49.997 28.836v-57.667L1050 375.813ZM1099.997 462.316 1150 433.48v-57.667l-50.003 28.836v57.667Z" stroke-width=".46666199999999997"/><path d="m1050 375.813 49.997-28.83 50.003 28.83-50.003 28.836L1050 375.813Z" stroke-width=".46666199999999997"/></g><g fill="none"><path d="M1150 375.813v57.667l49.997 28.836v-57.667L1150 375.813ZM1199.997 462.316 1250 433.48v-57.667l-50.003 28.836v57.667Z" stroke-width=".46666199999999997"/><path d="m1150 375.813 49.997-28.83 50.003 28.83-50.003 28.836L1150 375.813Z" stroke-width=".46666199999999997"/></g><g fill="none"><path d="M1250 375.813v57.667l49.997 28.836v-57.667L1250 375.813ZM1299.997 462.316 1350 433.48v-57.667l-50.003 28.836v57.667Z" stroke-width=".46666199999999997"/><path d="m1250 375.813 49.997-28.83 50.003 28.83-50.003 28.836L1250 375.813Z" stroke-width=".46666199999999997"/></g><g fill="none"><path d="M1350 375.813v57.667l49.997 28.836v-57.667L1350 375.813ZM1399.997 462.316 1450 433.48v-57.667l-50.003 28.836v57.667Z" stroke-width=".46666199999999997"/><path d="m1350 375.813 49.997-28.83 50.003 28.83-50.003 28.836L1350 375.813Z" stroke-width=".46666199999999997"/></g><g fill="none"><path d="M1450 375.813v57.667l49.997 28.836v-57.667L1450 375.813ZM1499.997 462.316 1550 433.48v-57.667l-50.003 28.836v57.667Z" stroke-width=".46666199999999997"/><path d="m1450 375.813 49.997-28.83 50.003 28.83-50.003 28.836L1450 375.813Z" stroke-width=".46666199999999997"/></g><g fill="none"><path d="M1550 375.813v57.667l49.997 28.836v-57.667L1550 375.813ZM1599.997 462.316 1650 433.48v-57.667l-50.003 28.836v57.667Z" stroke-width=".46666199999999997"/><path d="m1550 375.813 49.997-28.83 50.003 28.83-50.003 28.836L1550 375.813Z" stroke-width=".46666199999999997"/></g><g fill-rule="evenodd"><path d="M1650 375.813v57.667l49.997 28.836v-57.667L1650 375.813Z" fill="#4c4e7210" stroke-width=".46666199999999997"/><path d="M1699.997 462.316 1750 433.48v-57.667l-50.003 28.836v57.667Z" fill="#4c4e720b" stroke-width=".46666199999999997"/><path d="m1650 375.813 49.997-28.83 50.003 28.83-50.003 28.836L1650 375.813Z" fill="#4c4e7205" stroke-width=".46666199999999997"/></g><g fill="none"><path d="M1750 375.813v57.667l49.997 28.836v-57.667L1750 375.813ZM1799.997 462.316 1850 433.48v-57.667l-50.003 28.836v57.667Z" stroke-width=".46666199999999997"/><path d="m1750 375.813 49.997-28.83 50.003 28.83-50.003 28.836L1750 375.813Z" stroke-width=".46666199999999997"/></g><g fill="none"><path d="M1850 375.813v57.667l49.997 28.836v-57.667L1850 375.813ZM1899.997 462.316 1950 433.48v-57.667l-50.003 28.836v57.667Z" stroke-width=".46666199999999997"/><path d="m1850 375.813 49.997-28.83 50.003 28.83-50.003 28.836L1850 375.813Z" stroke-width=".46666199999999997"/></g><g fill="none"><path d="M1950 375.813v57.667l49.997 28.836v-57.667L1950 375.813ZM1999.997 462.316 2050 433.48v-57.667l-50.003 28.836v57.667Z" stroke-width=".46666199999999997"/><path d="m1950 375.813 49.997-28.83 50.003 28.83-50.003 28.836L1950 375.813Z" stroke-width=".46666199999999997"/></g><g fill-rule="evenodd"><path d="M0 462.48v57.667l49.997 28.835v-57.666L0 462.48Z" fill="#4c4e7240" stroke-width=".46666199999999997"/><path d="M49.997 548.982 100 520.147V462.48l-50.003 28.836v57.666Z" fill="#4c4e722d" stroke-width=".46666199999999997"/><path d="m0 462.48 49.997-28.83L100 462.48l-50.003 28.836L0 462.48Z" fill="#4c4e7216" stroke-width=".46666199999999997"/></g><g fill="none"><path d="M100 462.48v57.667l49.997 28.835v-57.666L100 462.48ZM149.997 548.982 200 520.147V462.48l-50.003 28.836v57.666Z" stroke-width=".46666199999999997"/><path d="m100 462.48 49.997-28.83L200 462.48l-50.003 28.836L100 462.48Z" stroke-width=".46666199999999997"/></g><g fill="none"><path d="M200 462.48v57.667l49.997 28.835v-57.666L200 462.48ZM249.997 548.982 300 520.147V462.48l-50.003 28.836v57.666Z" stroke-width=".46666199999999997"/><path d="m200 462.48 49.997-28.83L300 462.48l-50.003 28.836L200 462.48Z" stroke-width=".46666199999999997"/></g><g fill="none"><path d="M300 462.48v57.667l49.997 28.835v-57.666L300 462.48ZM349.997 548.982 400 520.147V462.48l-50.003 28.836v57.666Z" stroke-width=".46666199999999997"/><path d="m300 462.48 49.997-28.83L400 462.48l-50.003 28.836L300 462.48Z" stroke-width=".46666199999999997"/></g><g fill-rule="evenodd"><path d="M400 462.48v57.667l49.997 28.835v-57.666L400 462.48Z" fill="#4c4e7234" stroke-width=".46666199999999997"/><path d="M449.997 548.982 500 520.147V462.48l-50.003 28.836v57.666Z" fill="#4c4e7224" stroke-width=".46666199999999997"/><path d="m400 462.48 49.997-28.83L500 462.48l-50.003 28.836L400 462.48Z" fill="#4c4e7212" stroke-width=".46666199999999997"/></g><g fill="none"><path d="M500 462.48v57.667l49.997 28.835v-57.666L500 462.48ZM549.997 548.982 600 520.147V462.48l-50.003 28.836v57.666Z" stroke-width=".46666199999999997"/><path d="m500 462.48 49.997-28.83L600 462.48l-50.003 28.836L500 462.48Z" stroke-width=".46666199999999997"/></g><g fill-rule="evenodd"><path d="M600 462.48v57.667l49.997 28.835v-57.666L600 462.48Z" fill="#4c4e7221" stroke-width=".46666199999999997"/><path d="M649.997 548.982 700 520.147V462.48l-50.003 28.836v57.666Z" fill="#4c4e7217" stroke-width=".46666199999999997"/><path d="m600 462.48 49.997-28.83L700 462.48l-50.003 28.836L600 462.48Z" fill="#4c4e720b" stroke-width=".46666199999999997"/></g><g fill-rule="evenodd"><path d="M700 462.48v57.667l49.997 28.835v-57.666L700 462.48Z" fill="#4c4e720e" stroke-width=".46666199999999997"/><path d="M749.997 548.982 800 520.147V462.48l-50.003 28.836v57.666Z" fill="#4c4e720a" stroke-width=".46666199999999997"/><path d="m700 462.48 49.997-28.83L800 462.48l-50.003 28.836L700 462.48Z" fill="#4c4e7205" stroke-width=".46666199999999997"/></g><g fill-rule="evenodd"><path d="M800 462.48v57.667l49.997 28.835v-57.666L800 462.48Z" fill="#4c4e723b" stroke-width=".46666199999999997"/><path d="M849.997 548.982 900 520.147V462.48l-50.003 28.836v57.666Z" fill="#4c4e7229" stroke-width=".46666199999999997"/><path d="m800 462.48 49.997-28.83L900 462.48l-50.003 28.836L800 462.48Z" fill="#4c4e7215" stroke-width=".46666199999999997"/></g><g fill="none"><path d="M900 462.48v57.667l49.997 28.835v-57.666L900 462.48ZM949.997 548.982 1000 520.147V462.48l-50.003 28.836v57.666Z" stroke-width=".46666199999999997"/><path d="m900 462.48 49.997-28.83L1000 462.48l-50.003 28.836L900 462.48Z" stroke-width=".46666199999999997"/></g><g fill-rule="evenodd"><path d="M1000 462.48v57.667l49.997 28.835v-57.666L1000 462.48Z" fill="#4c4e72b6" stroke-width=".46666199999999997"/><path d="M1049.997 548.982 1100 520.147V462.48l-50.003 28.836v57.666Z" fill="#4c4e727f" stroke-width=".46666199999999997"/><path d="m1000 462.48 49.997-28.83L1100 462.48l-50.003 28.836L1000 462.48Z" fill="#4c4e7240" stroke-width=".46666199999999997"/></g><g fill-rule="evenodd"><path d="M1100 462.48v57.667l49.997 28.835v-57.666L1100 462.48Z" fill="#4c4e7209" stroke-width=".46666199999999997"/><path d="M1149.997 548.982 1200 520.147V462.48l-50.003 28.836v57.666Z" fill="#4c4e7206" stroke-width=".46666199999999997"/><path d="m1100 462.48 49.997-28.83L1200 462.48l-50.003 28.836L1100 462.48Z" fill="#4c4e7203" stroke-width=".46666199999999997"/></g><g fill="none"><path d="M1200 462.48v57.667l49.997 28.835v-57.666L1200 462.48ZM1249.997 548.982 1300 520.147V462.48l-50.003 28.836v57.666Z" stroke-width=".46666199999999997"/><path d="m1200 462.48 49.997-28.83L1300 462.48l-50.003 28.836L1200 462.48Z" stroke-width=".46666199999999997"/></g><g fill="none"><path d="M1300 462.48v57.667l49.997 28.835v-57.666L1300 462.48ZM1349.997 548.982 1400 520.147V462.48l-50.003 28.836v57.666Z" stroke-width=".46666199999999997"/><path d="m1300 462.48 49.997-28.83L1400 462.48l-50.003 28.836L1300 462.48Z" stroke-width=".46666199999999997"/></g><g fill-rule="evenodd"><path d="M1400 462.48v57.667l49.997 28.835v-57.666L1400 462.48Z" fill="#4c4e7286" stroke-width=".46666199999999997"/><path d="M1449.997 548.982 1500 520.147V462.48l-50.003 28.836v57.666Z" fill="#4c4e725e" stroke-width=".46666199999999997"/><path d="m1400 462.48 49.997-28.83L1500 462.48l-50.003 28.836L1400 462.48Z" fill="#4c4e722f" stroke-width=".46666199999999997"/></g><g fill="none"><path d="M1500 462.48v57.667l49.997 28.835v-57.666L1500 462.48ZM1549.997 548.982 1600 520.147V462.48l-50.003 28.836v57.666Z" stroke-width=".46666199999999997"/><path d="m1500 462.48 49.997-28.83L1600 462.48l-50.003 28.836L1500 462.48Z" stroke-width=".46666199999999997"/></g><g fill="none"><path d="M1600 462.48v57.667l49.997 28.835v-57.666L1600 462.48ZM1649.997 548.982 1700 520.147V462.48l-50.003 28.836v57.666Z" stroke-width=".46666199999999997"/><path d="m1600 462.48 49.997-28.83L1700 462.48l-50.003 28.836L1600 462.48Z" stroke-width=".46666199999999997"/></g><g fill="none"><path d="M1700 462.48v57.667l49.997 28.835v-57.666L1700 462.48ZM1749.997 548.982 1800 520.147V462.48l-50.003 28.836v57.666Z" stroke-width=".46666199999999997"/><path d="m1700 462.48 49.997-28.83L1800 462.48l-50.003 28.836L1700 462.48Z" stroke-width=".46666199999999997"/></g><g fill="none"><path d="M1800 462.48v57.667l49.997 28.835v-57.666L1800 462.48ZM1849.997 548.982 1900 520.147V462.48l-50.003 28.836v57.666Z" stroke-width=".46666199999999997"/><path d="m1800 462.48 49.997-28.83L1900 462.48l-50.003 28.836L1800 462.48Z" stroke-width=".46666199999999997"/></g><g fill-rule="evenodd"><path d="M1900 462.48v57.667l49.997 28.835v-57.666L1900 462.48Z" fill="#4c4e7270" stroke-width=".46666199999999997"/><path d="M1949.997 548.982 2000 520.147V462.48l-50.003 28.836v57.666Z" fill="#4c4e724e" stroke-width=".46666199999999997"/><path d="m1900 462.48 49.997-28.83L2000 462.48l-50.003 28.836L1900 462.48Z" fill="#4c4e7227" stroke-width=".46666199999999997"/></g><g fill-rule="evenodd"><path d="M50 549.147v57.666l49.997 28.836v-57.667L50 549.147Z" fill="#4c4e72fa" stroke-width=".46666199999999997"/><path d="M99.997 635.649 150 606.813v-57.666l-50.003 28.835v57.667Z" fill="#4c4e72af" stroke-width=".46666199999999997"/><path d="m50 549.147 49.997-28.831L150 549.146l-50.003 28.836L50 549.147Z" fill="#4c4e7257" stroke-width=".46666199999999997"/></g><g fill-rule="evenodd"><path d="M150 549.147v57.666l49.997 28.836v-57.667L150 549.147Z" fill="#4c4e72fb" stroke-width=".46666199999999997"/><path d="M199.997 635.649 250 606.813v-57.666l-50.003 28.835v57.667Z" fill="#4c4e72b0" stroke-width=".46666199999999997"/><path d="m150 549.147 49.997-28.831L250 549.146l-50.003 28.836L150 549.147Z" fill="#4c4e7258" stroke-width=".46666199999999997"/></g><g fill-rule="evenodd"><path d="M250 549.147v57.666l49.997 28.836v-57.667L250 549.147Z" fill="#4c4e721e" stroke-width=".46666199999999997"/><path d="M299.997 635.649 350 606.813v-57.666l-50.003 28.835v57.667Z" fill="#4c4e7215" stroke-width=".46666199999999997"/><path d="m250 549.147 49.997-28.831L350 549.146l-50.003 28.836L250 549.147Z" fill="#4c4e720b" stroke-width=".46666199999999997"/></g><g fill="none"><path d="M350 549.147v57.666l49.997 28.836v-57.667L350 549.147ZM399.997 635.649 450 606.813v-57.666l-50.003 28.835v57.667ZM350 549.147l49.997-28.831L450 549.146l-50.003 28.836L350 549.147Z" stroke-width=".46666199999999997"/></g><g fill="none"><path d="M450 549.147v57.666l49.997 28.836v-57.667L450 549.147ZM499.997 635.649 550 606.813v-57.666l-50.003 28.835v57.667ZM450 549.147l49.997-28.831L550 549.146l-50.003 28.836L450 549.147Z" stroke-width=".46666199999999997"/></g><g fill="none"><path d="M550 549.147v57.666l49.997 28.836v-57.667L550 549.147ZM599.997 635.649 650 606.813v-57.666l-50.003 28.835v57.667ZM550 549.147l49.997-28.831L650 549.146l-50.003 28.836L550 549.147Z" stroke-width=".46666199999999997"/></g><g fill-rule="evenodd"><path d="M650 549.147v57.666l49.997 28.836v-57.667L650 549.147Z" fill="#4c4e72f7" stroke-width=".46666199999999997"/><path d="M699.997 635.649 750 606.813v-57.666l-50.003 28.835v57.667Z" fill="#4c4e72ad" stroke-width=".46666199999999997"/><path d="m650 549.147 49.997-28.831L750 549.146l-50.003 28.836L650 549.147Z" fill="#4c4e7257" stroke-width=".46666199999999997"/></g><g fill="none"><path d="M750 549.147v57.666l49.997 28.836v-57.667L750 549.147ZM799.997 635.649 850 606.813v-57.666l-50.003 28.835v57.667ZM750 549.147l49.997-28.831L850 549.146l-50.003 28.836L750 549.147Z" stroke-width=".46666199999999997"/></g><g fill="none"><path d="M850 549.147v57.666l49.997 28.836v-57.667L850 549.147ZM899.997 635.649 950 606.813v-57.666l-50.003 28.835v57.667ZM850 549.147l49.997-28.831L950 549.146l-50.003 28.836L850 549.147Z" stroke-width=".46666199999999997"/></g><g fill-rule="evenodd"><path d="M950 549.147v57.666l49.997 28.836v-57.667L950 549.147Z" fill="#4c4e726b" stroke-width=".46666199999999997"/><path d="M999.997 635.649 1050 606.813v-57.666l-50.003 28.835v57.667Z" fill="#4c4e724b" stroke-width=".46666199999999997"/><path d="m950 549.147 49.997-28.831 50.003 28.83-50.003 28.836L950 549.147Z" fill="#4c4e7225" stroke-width=".46666199999999997"/></g><g fill="none"><path d="M1050 549.147v57.666l49.997 28.836v-57.667L1050 549.147ZM1099.997 635.649 1150 606.813v-57.666l-50.003 28.835v57.667Z" stroke-width=".46666199999999997"/><path d="m1050 549.147 49.997-28.831 50.003 28.83-50.003 28.836L1050 549.147Z" stroke-width=".46666199999999997"/></g><g fill="none"><path d="M1150 549.147v57.666l49.997 28.836v-57.667L1150 549.147ZM1199.997 635.649 1250 606.813v-57.666l-50.003 28.835v57.667Z" stroke-width=".46666199999999997"/><path d="m1150 549.147 49.997-28.831 50.003 28.83-50.003 28.836L1150 549.147Z" stroke-width=".46666199999999997"/></g><g fill-rule="evenodd"><path d="M1250 549.147v57.666l49.997 28.836v-57.667L1250 549.147Z" fill="#4c4e727b" stroke-width=".46666199999999997"/><path d="M1299.997 635.649 1350 606.813v-57.666l-50.003 28.835v57.667Z" fill="#4c4e7256" stroke-width=".46666199999999997"/><path d="m1250 549.147 49.997-28.831 50.003 28.83-50.003 28.836L1250 549.147Z" fill="#4c4e722b" stroke-width=".46666199999999997"/></g><g fill-rule="evenodd"><path d="M1350 549.147v57.666l49.997 28.836v-57.667L1350 549.147Z" fill="#4c4e7247" stroke-width=".46666199999999997"/><path d="M1399.997 635.649 1450 606.813v-57.666l-50.003 28.835v57.667Z" fill="#4c4e7232" stroke-width=".46666199999999997"/><path d="m1350 549.147 49.997-28.831 50.003 28.83-50.003 28.836L1350 549.147Z" fill="#4c4e7219" stroke-width=".46666199999999997"/></g><g fill="none"><path d="M1450 549.147v57.666l49.997 28.836v-57.667L1450 549.147ZM1499.997 635.649 1550 606.813v-57.666l-50.003 28.835v57.667Z" stroke-width=".46666199999999997"/><path d="m1450 549.147 49.997-28.831 50.003 28.83-50.003 28.836L1450 549.147Z" stroke-width=".46666199999999997"/></g><g fill="none"><path d="M1550 549.147v57.666l49.997 28.836v-57.667L1550 549.147ZM1599.997 635.649 1650 606.813v-57.666l-50.003 28.835v57.667Z" stroke-width=".46666199999999997"/><path d="m1550 549.147 49.997-28.831 50.003 28.83-50.003 28.836L1550 549.147Z" stroke-width=".46666199999999997"/></g><g fill="none"><path d="M1650 549.147v57.666l49.997 28.836v-57.667L1650 549.147ZM1699.997 635.649 1750 606.813v-57.666l-50.003 28.835v57.667Z" stroke-width=".46666199999999997"/><path d="m1650 549.147 49.997-28.831 50.003 28.83-50.003 28.836L1650 549.147Z" stroke-width=".46666199999999997"/></g><g fill="none"><path d="M1750 549.147v57.666l49.997 28.836v-57.667L1750 549.147ZM1799.997 635.649 1850 606.813v-57.666l-50.003 28.835v57.667Z" stroke-width=".46666199999999997"/><path d="m1750 549.147 49.997-28.831 50.003 28.83-50.003 28.836L1750 549.147Z" stroke-width=".46666199999999997"/></g><g fill-rule="evenodd"><path d="M1850 549.147v57.666l49.997 28.836v-57.667L1850 549.147Z" fill="#4c4e72e5" stroke-width=".46666199999999997"/><path d="M1899.997 635.649 1950 606.813v-57.666l-50.003 28.835v57.667Z" fill="#4c4e72a0" stroke-width=".46666199999999997"/><path d="m1850 549.147 49.997-28.831 50.003 28.83-50.003 28.836L1850 549.147Z" fill="#4c4e7250" stroke-width=".46666199999999997"/></g><g fill="none"><path d="M1950 549.147v57.666l49.997 28.836v-57.667L1950 549.147ZM1999.997 635.649 2050 606.813v-57.666l-50.003 28.835v57.667Z" stroke-width=".46666199999999997"/><path d="m1950 549.147 49.997-28.831 50.003 28.83-50.003 28.836L1950 549.147Z" stroke-width=".46666199999999997"/></g><g fill="none"><path d="M0 635.813v57.667l49.997 28.836v-57.667L0 635.813ZM49.997 722.316 100 693.48v-57.667L49.997 664.65v57.667Z" stroke-width=".46666199999999997"/><path d="m0 635.813 49.997-28.83L100 635.812 49.997 664.65 0 635.813Z" stroke-width=".46666199999999997"/></g><g fill="none"><path d="M100 635.813v57.667l49.997 28.836v-57.667L100 635.813ZM149.997 722.316 200 693.48v-57.667l-50.003 28.836v57.667ZM100 635.813l49.997-28.83L200 635.812l-50.003 28.836L100 635.813Z" stroke-width=".46666199999999997"/></g><g fill-rule="evenodd"><path d="M200 635.813v57.667l49.997 28.836v-57.667L200 635.813Z" fill="#4c4e722b" stroke-width=".46666199999999997"/><path d="M249.997 722.316 300 693.48v-57.667l-50.003 28.836v57.667Z" fill="#4c4e721e" stroke-width=".46666199999999997"/><path d="m200 635.813 49.997-28.83L300 635.812l-50.003 28.836L200 635.813Z" fill="#4c4e720f" stroke-width=".46666199999999997"/></g><g fill="none"><path d="M300 635.813v57.667l49.997 28.836v-57.667L300 635.813ZM349.997 722.316 400 693.48v-57.667l-50.003 28.836v57.667ZM300 635.813l49.997-28.83L400 635.812l-50.003 28.836L300 635.813Z" stroke-width=".46666199999999997"/></g><g fill="none"><path d="M400 635.813v57.667l49.997 28.836v-57.667L400 635.813ZM449.997 722.316 500 693.48v-57.667l-50.003 28.836v57.667ZM400 635.813l49.997-28.83L500 635.812l-50.003 28.836L400 635.813Z" stroke-width=".46666199999999997"/></g><g fill="none"><path d="M500 635.813v57.667l49.997 28.836v-57.667L500 635.813ZM549.997 722.316 600 693.48v-57.667l-50.003 28.836v57.667ZM500 635.813l49.997-28.83L600 635.812l-50.003 28.836L500 635.813Z" stroke-width=".46666199999999997"/></g><g fill="none"><path d="M600 635.813v57.667l49.997 28.836v-57.667L600 635.813ZM649.997 722.316 700 693.48v-57.667l-50.003 28.836v57.667ZM600 635.813l49.997-28.83L700 635.812l-50.003 28.836L600 635.813Z" stroke-width=".46666199999999997"/></g><g fill="none"><path d="M700 635.813v57.667l49.997 28.836v-57.667L700 635.813ZM749.997 722.316 800 693.48v-57.667l-50.003 28.836v57.667ZM700 635.813l49.997-28.83L800 635.812l-50.003 28.836L700 635.813Z" stroke-width=".46666199999999997"/></g><g fill="none"><path d="M800 635.813v57.667l49.997 28.836v-57.667L800 635.813ZM849.997 722.316 900 693.48v-57.667l-50.003 28.836v57.667ZM800 635.813l49.997-28.83L900 635.812l-50.003 28.836L800 635.813Z" stroke-width=".46666199999999997"/></g><g fill="none"><path d="M900 635.813v57.667l49.997 28.836v-57.667L900 635.813ZM949.997 722.316 1000 693.48v-57.667l-50.003 28.836v57.667Z" stroke-width=".46666199999999997"/><path d="m900 635.813 49.997-28.83 50.003 28.83-50.003 28.836L900 635.813Z" stroke-width=".46666199999999997"/></g><g fill="none"><path d="M1000 635.813v57.667l49.997 28.836v-57.667L1000 635.813ZM1049.997 722.316 1100 693.48v-57.667l-50.003 28.836v57.667Z" stroke-width=".46666199999999997"/><path d="m1000 635.813 49.997-28.83 50.003 28.83-50.003 28.836L1000 635.813Z" stroke-width=".46666199999999997"/></g><g fill-rule="evenodd"><path d="M1100 635.813v57.667l49.997 28.836v-57.667L1100 635.813Z" fill="#4c4e72d7" stroke-width=".46666199999999997"/><path d="M1149.997 722.316 1200 693.48v-57.667l-50.003 28.836v57.667Z" fill="#4c4e7296" stroke-width=".46666199999999997"/><path d="m1100 635.813 49.997-28.83 50.003 28.83-50.003 28.836L1100 635.813Z" fill="#4c4e724b" stroke-width=".46666199999999997"/></g><g fill="none"><path d="M1200 635.813v57.667l49.997 28.836v-57.667L1200 635.813ZM1249.997 722.316 1300 693.48v-57.667l-50.003 28.836v57.667Z" stroke-width=".46666199999999997"/><path d="m1200 635.813 49.997-28.83 50.003 28.83-50.003 28.836L1200 635.813Z" stroke-width=".46666199999999997"/></g><g fill="none"><path d="M1300 635.813v57.667l49.997 28.836v-57.667L1300 635.813ZM1349.997 722.316 1400 693.48v-57.667l-50.003 28.836v57.667Z" stroke-width=".46666199999999997"/><path d="m1300 635.813 49.997-28.83 50.003 28.83-50.003 28.836L1300 635.813Z" stroke-width=".46666199999999997"/></g><g fill-rule="evenodd"><path d="M1400 635.813v57.667l49.997 28.836v-57.667L1400 635.813Z" fill="#4c4e7258" stroke-width=".46666199999999997"/><path d="M1449.997 722.316 1500 693.48v-57.667l-50.003 28.836v57.667Z" fill="#4c4e723e" stroke-width=".46666199999999997"/><path d="m1400 635.813 49.997-28.83 50.003 28.83-50.003 28.836L1400 635.813Z" fill="#4c4e721f" stroke-width=".46666199999999997"/></g><g fill="none"><path d="M1500 635.813v57.667l49.997 28.836v-57.667L1500 635.813ZM1549.997 722.316 1600 693.48v-57.667l-50.003 28.836v57.667Z" stroke-width=".46666199999999997"/><path d="m1500 635.813 49.997-28.83 50.003 28.83-50.003 28.836L1500 635.813Z" stroke-width=".46666199999999997"/></g><g fill="none"><path d="M1600 635.813v57.667l49.997 28.836v-57.667L1600 635.813ZM1649.997 722.316 1700 693.48v-57.667l-50.003 28.836v57.667Z" stroke-width=".46666199999999997"/><path d="m1600 635.813 49.997-28.83 50.003 28.83-50.003 28.836L1600 635.813Z" stroke-width=".46666199999999997"/></g><g fill="none"><path d="M1700 635.813v57.667l49.997 28.836v-57.667L1700 635.813ZM1749.997 722.316 1800 693.48v-57.667l-50.003 28.836v57.667Z" stroke-width=".46666199999999997"/><path d="m1700 635.813 49.997-28.83 50.003 28.83-50.003 28.836L1700 635.813Z" stroke-width=".46666199999999997"/></g><g fill="none"><path d="M1800 635.813v57.667l49.997 28.836v-57.667L1800 635.813ZM1849.997 722.316 1900 693.48v-57.667l-50.003 28.836v57.667Z" stroke-width=".46666199999999997"/><path d="m1800 635.813 49.997-28.83 50.003 28.83-50.003 28.836L1800 635.813Z" stroke-width=".46666199999999997"/></g><g fill="none"><path d="M1900 635.813v57.667l49.997 28.836v-57.667L1900 635.813ZM1949.997 722.316 2000 693.48v-57.667l-50.003 28.836v57.667Z" stroke-width=".46666199999999997"/><path d="m1900 635.813 49.997-28.83 50.003 28.83-50.003 28.836L1900 635.813Z" stroke-width=".46666199999999997"/></g><g fill-rule="evenodd"><path d="M50 722.48v57.667l49.997 28.835v-57.666L50 722.48Z" fill="#4c4e7283" stroke-width=".46666199999999997"/><path d="M99.997 808.982 150 780.147V722.48l-50.003 28.836v57.666Z" fill="#4c4e725c" stroke-width=".46666199999999997"/><path d="m50 722.48 49.997-28.83L150 722.48l-50.003 28.836L50 722.48Z" fill="#4c4e722e" stroke-width=".46666199999999997"/></g><g fill="none"><path d="M150 722.48v57.667l49.997 28.835v-57.666L150 722.48ZM199.997 808.982 250 780.147V722.48l-50.003 28.836v57.666Z" stroke-width=".46666199999999997"/><path d="m150 722.48 49.997-28.83L250 722.48l-50.003 28.836L150 722.48Z" stroke-width=".46666199999999997"/></g><g fill-rule="evenodd"><path d="M250 722.48v57.667l49.997 28.835v-57.666L250 722.48Z" fill="#4c4e724e" stroke-width=".46666199999999997"/><path d="M299.997 808.982 350 780.147V722.48l-50.003 28.836v57.666Z" fill="#4c4e7237" stroke-width=".46666199999999997"/><path d="m250 722.48 49.997-28.83L350 722.48l-50.003 28.836L250 722.48Z" fill="#4c4e721b" stroke-width=".46666199999999997"/></g><g fill-rule="evenodd"><path d="M350 722.48v57.667l49.997 28.835v-57.666L350 722.48Z" fill="#4c4e7255" stroke-width=".46666199999999997"/><path d="M399.997 808.982 450 780.147V722.48l-50.003 28.836v57.666Z" fill="#4c4e723b" stroke-width=".46666199999999997"/><path d="m350 722.48 49.997-28.83L450 722.48l-50.003 28.836L350 722.48Z" fill="#4c4e721e" stroke-width=".46666199999999997"/></g><g fill-rule="evenodd"><path d="M450 722.48v57.667l49.997 28.835v-57.666L450 722.48Z" fill="#4c4e7275" stroke-width=".46666199999999997"/><path d="M499.997 808.982 550 780.147V722.48l-50.003 28.836v57.666Z" fill="#4c4e7252" stroke-width=".46666199999999997"/><path d="m450 722.48 49.997-28.83L550 722.48l-50.003 28.836L450 722.48Z" fill="#4c4e7229" stroke-width=".46666199999999997"/></g><g fill="none"><path d="M550 722.48v57.667l49.997 28.835v-57.666L550 722.48ZM599.997 808.982 650 780.147V722.48l-50.003 28.836v57.666Z" stroke-width=".46666199999999997"/><path d="m550 722.48 49.997-28.83L650 722.48l-50.003 28.836L550 722.48Z" stroke-width=".46666199999999997"/></g><g fill="none"><path d="M650 722.48v57.667l49.997 28.835v-57.666L650 722.48ZM699.997 808.982 750 780.147V722.48l-50.003 28.836v57.666Z" stroke-width=".46666199999999997"/><path d="m650 722.48 49.997-28.83L750 722.48l-50.003 28.836L650 722.48Z" stroke-width=".46666199999999997"/></g><g fill="none"><path d="M750 722.48v57.667l49.997 28.835v-57.666L750 722.48ZM799.997 808.982 850 780.147V722.48l-50.003 28.836v57.666Z" stroke-width=".46666199999999997"/><path d="m750 722.48 49.997-28.83L850 722.48l-50.003 28.836L750 722.48Z" stroke-width=".46666199999999997"/></g><g fill="none"><path d="M850 722.48v57.667l49.997 28.835v-57.666L850 722.48ZM899.997 808.982 950 780.147V722.48l-50.003 28.836v57.666Z" stroke-width=".46666199999999997"/><path d="m850 722.48 49.997-28.83L950 722.48l-50.003 28.836L850 722.48Z" stroke-width=".46666199999999997"/></g><g fill-rule="evenodd"><path d="M950 722.48v57.667l49.997 28.835v-57.666L950 722.48Z" fill="#4c4e727e" stroke-width=".46666199999999997"/><path d="M999.997 808.982 1050 780.147V722.48l-50.003 28.836v57.666Z" fill="#4c4e7258" stroke-width=".46666199999999997"/><path d="m950 722.48 49.997-28.83L1050 722.48l-50.003 28.836L950 722.48Z" fill="#4c4e722c" stroke-width=".46666199999999997"/></g><g fill-rule="evenodd"><path d="M1050 722.48v57.667l49.997 28.835v-57.666L1050 722.48Z" fill="#4c4e72f9" stroke-width=".46666199999999997"/><path d="M1099.997 808.982 1150 780.147V722.48l-50.003 28.836v57.666Z" fill="#4c4e72ae" stroke-width=".46666199999999997"/><path d="m1050 722.48 49.997-28.83L1150 722.48l-50.003 28.836L1050 722.48Z" fill="#4c4e7257" stroke-width=".46666199999999997"/></g><g fill="none"><path d="M1150 722.48v57.667l49.997 28.835v-57.666L1150 722.48ZM1199.997 808.982 1250 780.147V722.48l-50.003 28.836v57.666Z" stroke-width=".46666199999999997"/><path d="m1150 722.48 49.997-28.83L1250 722.48l-50.003 28.836L1150 722.48Z" stroke-width=".46666199999999997"/></g><g fill="none"><path d="M1250 722.48v57.667l49.997 28.835v-57.666L1250 722.48ZM1299.997 808.982 1350 780.147V722.48l-50.003 28.836v57.666Z" stroke-width=".46666199999999997"/><path d="m1250 722.48 49.997-28.83L1350 722.48l-50.003 28.836L1250 722.48Z" stroke-width=".46666199999999997"/></g><g fill="none"><path d="M1350 722.48v57.667l49.997 28.835v-57.666L1350 722.48ZM1399.997 808.982 1450 780.147V722.48l-50.003 28.836v57.666Z" stroke-width=".46666199999999997"/><path d="m1350 722.48 49.997-28.83L1450 722.48l-50.003 28.836L1350 722.48Z" stroke-width=".46666199999999997"/></g><g fill="none"><path d="M1450 722.48v57.667l49.997 28.835v-57.666L1450 722.48ZM1499.997 808.982 1550 780.147V722.48l-50.003 28.836v57.666Z" stroke-width=".46666199999999997"/><path d="m1450 722.48 49.997-28.83L1550 722.48l-50.003 28.836L1450 722.48Z" stroke-width=".46666199999999997"/></g><g fill="none"><path d="M1550 722.48v57.667l49.997 28.835v-57.666L1550 722.48ZM1599.997 808.982 1650 780.147V722.48l-50.003 28.836v57.666Z" stroke-width=".46666199999999997"/><path d="m1550 722.48 49.997-28.83L1650 722.48l-50.003 28.836L1550 722.48Z" stroke-width=".46666199999999997"/></g><g fill-rule="evenodd"><path d="M1650 722.48v57.667l49.997 28.835v-57.666L1650 722.48Z" fill="#4c4e72d5" stroke-width=".46666199999999997"/><path d="M1699.997 808.982 1750 780.147V722.48l-50.003 28.836v57.666Z" fill="#4c4e7295" stroke-width=".46666199999999997"/><path d="m1650 722.48 49.997-28.83L1750 722.48l-50.003 28.836L1650 722.48Z" fill="#4c4e724a" stroke-width=".46666199999999997"/></g><g fill-rule="evenodd"><path d="M1750 722.48v57.667l49.997 28.835v-57.666L1750 722.48Z" fill="#4c4e7226" stroke-width=".46666199999999997"/><path d="M1799.997 808.982 1850 780.147V722.48l-50.003 28.836v57.666Z" fill="#4c4e721a" stroke-width=".46666199999999997"/><path d="m1750 722.48 49.997-28.83L1850 722.48l-50.003 28.836L1750 722.48Z" fill="#4c4e720d" stroke-width=".46666199999999997"/></g><g fill="none"><path d="M1850 722.48v57.667l49.997 28.835v-57.666L1850 722.48ZM1899.997 808.982 1950 780.147V722.48l-50.003 28.836v57.666Z" stroke-width=".46666199999999997"/><path d="m1850 722.48 49.997-28.83L1950 722.48l-50.003 28.836L1850 722.48Z" stroke-width=".46666199999999997"/></g><g fill-rule="evenodd"><path d="M1950 722.48v57.667l49.997 28.835v-57.666L1950 722.48Z" fill="#4c4e721c" stroke-width=".46666199999999997"/><path d="M1999.997 808.982 2050 780.147V722.48l-50.003 28.836v57.666Z" fill="#4c4e7213" stroke-width=".46666199999999997"/><path d="m1950 722.48 49.997-28.83L2050 722.48l-50.003 28.836L1950 722.48Z" fill="#4c4e720a" stroke-width=".46666199999999997"/></g><g fill="none"><path d="M0 809.147v57.666l49.997 28.836v-57.667L0 809.147ZM49.997 895.649 100 866.813v-57.666l-50.003 28.835v57.667ZM0 809.147l49.997-28.831L100 809.146l-50.003 28.836L0 809.147Z" stroke-width=".46666199999999997"/></g><g fill-rule="evenodd"><path d="M100 809.147v57.666l49.997 28.836v-57.667L100 809.147Z" fill="#4c4e72fb" stroke-width=".46666199999999997"/><path d="M149.997 895.649 200 866.813v-57.666l-50.003 28.835v57.667Z" fill="#4c4e72af" stroke-width=".46666199999999997"/><path d="m100 809.147 49.997-28.831L200 809.146l-50.003 28.836L100 809.147Z" fill="#4c4e7258" stroke-width=".46666199999999997"/></g><g fill="none"><path d="M200 809.147v57.666l49.997 28.836v-57.667L200 809.147ZM249.997 895.649 300 866.813v-57.666l-50.003 28.835v57.667ZM200 809.147l49.997-28.831L300 809.146l-50.003 28.836L200 809.147Z" stroke-width=".46666199999999997"/></g><g fill="none"><path d="M300 809.147v57.666l49.997 28.836v-57.667L300 809.147ZM349.997 895.649 400 866.813v-57.666l-50.003 28.835v57.667ZM300 809.147l49.997-28.831L400 809.146l-50.003 28.836L300 809.147Z" stroke-width=".46666199999999997"/></g><g fill="none"><path d="M400 809.147v57.666l49.997 28.836v-57.667L400 809.147ZM449.997 895.649 500 866.813v-57.666l-50.003 28.835v57.667ZM400 809.147l49.997-28.831L500 809.146l-50.003 28.836L400 809.147Z" stroke-width=".46666199999999997"/></g><g fill="none"><path d="M500 809.147v57.666l49.997 28.836v-57.667L500 809.147ZM549.997 895.649 600 866.813v-57.666l-50.003 28.835v57.667ZM500 809.147l49.997-28.831L600 809.146l-50.003 28.836L500 809.147Z" stroke-width=".46666199999999997"/></g><g fill-rule="evenodd"><path d="M600 809.147v57.666l49.997 28.836v-57.667L600 809.147Z" fill="#4c4e7299" stroke-width=".46666199999999997"/><path d="M649.997 895.649 700 866.813v-57.666l-50.003 28.835v57.667Z" fill="#4c4e726b" stroke-width=".46666199999999997"/><path d="m600 809.147 49.997-28.831L700 809.146l-50.003 28.836L600 809.147Z" fill="#4c4e7236" stroke-width=".46666199999999997"/></g><g fill-rule="evenodd"><path d="M700 809.147v57.666l49.997 28.836v-57.667L700 809.147Z" fill="#4c4e722f" stroke-width=".46666199999999997"/><path d="M749.997 895.649 800 866.813v-57.666l-50.003 28.835v57.667Z" fill="#4c4e7221" stroke-width=".46666199999999997"/><path d="m700 809.147 49.997-28.831L800 809.146l-50.003 28.836L700 809.147Z" fill="#4c4e7211" stroke-width=".46666199999999997"/></g><g fill-rule="evenodd"><path d="M800 809.147v57.666l49.997 28.836v-57.667L800 809.147Z" fill="#4c4e72cc" stroke-width=".46666199999999997"/><path d="M849.997 895.649 900 866.813v-57.666l-50.003 28.835v57.667Z" fill="#4c4e728f" stroke-width=".46666199999999997"/><path d="m800 809.147 49.997-28.831L900 809.146l-50.003 28.836L800 809.147Z" fill="#4c4e7247" stroke-width=".46666199999999997"/></g><g fill-rule="evenodd"><path d="M900 809.147v57.666l49.997 28.836v-57.667L900 809.147Z" fill="#4c4e72fc" stroke-width=".46666199999999997"/><path d="M949.997 895.649 1000 866.813v-57.666l-50.003 28.835v57.667Z" fill="#4c4e72b0" stroke-width=".46666199999999997"/><path d="m900 809.147 49.997-28.831 50.003 28.83-50.003 28.836L900 809.147Z" fill="#4c4e7258" stroke-width=".46666199999999997"/></g><g fill-rule="evenodd"><path d="M1000 809.147v57.666l49.997 28.836v-57.667L1000 809.147Z" fill="#4c4e7208" stroke-width=".46666199999999997"/><path d="M1049.997 895.649 1100 866.813v-57.666l-50.003 28.835v57.667Z" fill="#4c4e7205" stroke-width=".46666199999999997"/><path d="m1000 809.147 49.997-28.831 50.003 28.83-50.003 28.836L1000 809.147Z" fill="#4c4e7203" stroke-width=".46666199999999997"/></g><g fill="none"><path d="M1100 809.147v57.666l49.997 28.836v-57.667L1100 809.147ZM1149.997 895.649 1200 866.813v-57.666l-50.003 28.835v57.667Z" stroke-width=".46666199999999997"/><path d="m1100 809.147 49.997-28.831 50.003 28.83-50.003 28.836L1100 809.147Z" stroke-width=".46666199999999997"/></g><g fill="none"><path d="M1200 809.147v57.666l49.997 28.836v-57.667L1200 809.147ZM1249.997 895.649 1300 866.813v-57.666l-50.003 28.835v57.667Z" stroke-width=".46666199999999997"/><path d="m1200 809.147 49.997-28.831 50.003 28.83-50.003 28.836L1200 809.147Z" stroke-width=".46666199999999997"/></g><g fill="none"><path d="M1300 809.147v57.666l49.997 28.836v-57.667L1300 809.147ZM1349.997 895.649 1400 866.813v-57.666l-50.003 28.835v57.667Z" stroke-width=".46666199999999997"/><path d="m1300 809.147 49.997-28.831 50.003 28.83-50.003 28.836L1300 809.147Z" stroke-width=".46666199999999997"/></g><g fill="none"><path d="M1400 809.147v57.666l49.997 28.836v-57.667L1400 809.147ZM1449.997 895.649 1500 866.813v-57.666l-50.003 28.835v57.667Z" stroke-width=".46666199999999997"/><path d="m1400 809.147 49.997-28.831 50.003 28.83-50.003 28.836L1400 809.147Z" stroke-width=".46666199999999997"/></g><g fill="none"><path d="M1500 809.147v57.666l49.997 28.836v-57.667L1500 809.147ZM1549.997 895.649 1600 866.813v-57.666l-50.003 28.835v57.667Z" stroke-width=".46666199999999997"/><path d="m1500 809.147 49.997-28.831 50.003 28.83-50.003 28.836L1500 809.147Z" stroke-width=".46666199999999997"/></g><g fill="none"><path d="M1600 809.147v57.666l49.997 28.836v-57.667L1600 809.147ZM1649.997 895.649 1700 866.813v-57.666l-50.003 28.835v57.667Z" stroke-width=".46666199999999997"/><path d="m1600 809.147 49.997-28.831 50.003 28.83-50.003 28.836L1600 809.147Z" stroke-width=".46666199999999997"/></g><g fill="none"><path d="M1700 809.147v57.666l49.997 28.836v-57.667L1700 809.147ZM1749.997 895.649 1800 866.813v-57.666l-50.003 28.835v57.667Z" stroke-width=".46666199999999997"/><path d="m1700 809.147 49.997-28.831 50.003 28.83-50.003 28.836L1700 809.147Z" stroke-width=".46666199999999997"/></g><g fill-rule="evenodd"><path d="M1800 809.147v57.666l49.997 28.836v-57.667L1800 809.147Z" fill="#4c4e72ae" stroke-width=".46666199999999997"/><path d="M1849.997 895.649 1900 866.813v-57.666l-50.003 28.835v57.667Z" fill="#4c4e727a" stroke-width=".46666199999999997"/><path d="m1800 809.147 49.997-28.831 50.003 28.83-50.003 28.836L1800 809.147Z" fill="#4c4e723d" stroke-width=".46666199999999997"/></g><g fill="none"><path d="M1900 809.147v57.666l49.997 28.836v-57.667L1900 809.147ZM1949.997 895.649 2000 866.813v-57.666l-50.003 28.835v57.667Z" stroke-width=".46666199999999997"/><path d="m1900 809.147 49.997-28.831 50.003 28.83-50.003 28.836L1900 809.147Z" stroke-width=".46666199999999997"/></g><g fill="none"><path d="M50 895.813v57.667l49.997 28.836v-57.667L50 895.813ZM99.997 982.316 150 953.48v-57.667L99.997 924.65v57.667Z" stroke-width=".46666199999999997"/><path d="m50 895.813 49.997-28.83L150 895.812 99.997 924.65 50 895.813Z" stroke-width=".46666199999999997"/></g><g fill="none"><path d="M150 895.813v57.667l49.997 28.836v-57.667L150 895.813ZM199.997 982.316 250 953.48v-57.667l-50.003 28.836v57.667ZM150 895.813l49.997-28.83L250 895.812l-50.003 28.836L150 895.813Z" stroke-width=".46666199999999997"/></g><g fill="none"><path d="M250 895.813v57.667l49.997 28.836v-57.667L250 895.813ZM299.997 982.316 350 953.48v-57.667l-50.003 28.836v57.667ZM250 895.813l49.997-28.83L350 895.812l-50.003 28.836L250 895.813Z" stroke-width=".46666199999999997"/></g><g fill="none"><path d="M350 895.813v57.667l49.997 28.836v-57.667L350 895.813ZM399.997 982.316 450 953.48v-57.667l-50.003 28.836v57.667ZM350 895.813l49.997-28.83L450 895.812l-50.003 28.836L350 895.813Z" stroke-width=".46666199999999997"/></g><g fill="none"><path d="M450 895.813v57.667l49.997 28.836v-57.667L450 895.813ZM499.997 982.316 550 953.48v-57.667l-50.003 28.836v57.667ZM450 895.813l49.997-28.83L550 895.812l-50.003 28.836L450 895.813Z" stroke-width=".46666199999999997"/></g><g fill-rule="evenodd"><path d="M550 895.813v57.667l49.997 28.836v-57.667L550 895.813Z" fill="#4c4e72d7" stroke-width=".46666199999999997"/><path d="M599.997 982.316 650 953.48v-57.667l-50.003 28.836v57.667Z" fill="#4c4e7297" stroke-width=".46666199999999997"/><path d="m550 895.813 49.997-28.83L650 895.812l-50.003 28.836L550 895.813Z" fill="#4c4e724b" stroke-width=".46666199999999997"/></g><g fill-rule="evenodd"><path d="M650 895.813v57.667l49.997 28.836v-57.667L650 895.813Z" fill="#4c4e72b1" stroke-width=".46666199999999997"/><path d="M699.997 982.316 750 953.48v-57.667l-50.003 28.836v57.667Z" fill="#4c4e727c" stroke-width=".46666199999999997"/><path d="m650 895.813 49.997-28.83L750 895.812l-50.003 28.836L650 895.813Z" fill="#4c4e723e" stroke-width=".46666199999999997"/></g><g fill="none"><path d="M750 895.813v57.667l49.997 28.836v-57.667L750 895.813ZM799.997 982.316 850 953.48v-57.667l-50.003 28.836v57.667ZM750 895.813l49.997-28.83L850 895.812l-50.003 28.836L750 895.813Z" stroke-width=".46666199999999997"/></g><g fill-rule="evenodd"><path d="M850 895.813v57.667l49.997 28.836v-57.667L850 895.813Z" fill="#4c4e72f2" stroke-width=".46666199999999997"/><path d="M899.997 982.316 950 953.48v-57.667l-50.003 28.836v57.667Z" fill="#4c4e72aa" stroke-width=".46666199999999997"/><path d="m850 895.813 49.997-28.83L950 895.812l-50.003 28.836L850 895.813Z" fill="#4c4e7255" stroke-width=".46666199999999997"/></g><g fill="none"><path d="M950 895.813v57.667l49.997 28.836v-57.667L950 895.813ZM999.997 982.316 1050 953.48v-57.667l-50.003 28.836v57.667Z" stroke-width=".46666199999999997"/><path d="m950 895.813 49.997-28.83 50.003 28.83-50.003 28.836L950 895.813Z" stroke-width=".46666199999999997"/></g><g fill-rule="evenodd"><path d="M1050 895.813v57.667l49.997 28.836v-57.667L1050 895.813Z" fill="#4c4e727b" stroke-width=".46666199999999997"/><path d="M1099.997 982.316 1150 953.48v-57.667l-50.003 28.836v57.667Z" fill="#4c4e7256" stroke-width=".46666199999999997"/><path d="m1050 895.813 49.997-28.83 50.003 28.83-50.003 28.836L1050 895.813Z" fill="#4c4e722b" stroke-width=".46666199999999997"/></g><g fill="none"><path d="M1150 895.813v57.667l49.997 28.836v-57.667L1150 895.813ZM1199.997 982.316 1250 953.48v-57.667l-50.003 28.836v57.667Z" stroke-width=".46666199999999997"/><path d="m1150 895.813 49.997-28.83 50.003 28.83-50.003 28.836L1150 895.813Z" stroke-width=".46666199999999997"/></g><g fill="none"><path d="M1250 895.813v57.667l49.997 28.836v-57.667L1250 895.813ZM1299.997 982.316 1350 953.48v-57.667l-50.003 28.836v57.667Z" stroke-width=".46666199999999997"/><path d="m1250 895.813 49.997-28.83 50.003 28.83-50.003 28.836L1250 895.813Z" stroke-width=".46666199999999997"/></g><g fill="none"><path d="M1350 895.813v57.667l49.997 28.836v-57.667L1350 895.813ZM1399.997 982.316 1450 953.48v-57.667l-50.003 28.836v57.667Z" stroke-width=".46666199999999997"/><path d="m1350 895.813 49.997-28.83 50.003 28.83-50.003 28.836L1350 895.813Z" stroke-width=".46666199999999997"/></g><g fill="none"><path d="M1450 895.813v57.667l49.997 28.836v-57.667L1450 895.813ZM1499.997 982.316 1550 953.48v-57.667l-50.003 28.836v57.667Z" stroke-width=".46666199999999997"/><path d="m1450 895.813 49.997-28.83 50.003 28.83-50.003 28.836L1450 895.813Z" stroke-width=".46666199999999997"/></g><g fill="none"><path d="M1550 895.813v57.667l49.997 28.836v-57.667L1550 895.813ZM1599.997 982.316 1650 953.48v-57.667l-50.003 28.836v57.667Z" stroke-width=".46666199999999997"/><path d="m1550 895.813 49.997-28.83 50.003 28.83-50.003 28.836L1550 895.813Z" stroke-width=".46666199999999997"/></g><g fill="none"><path d="M1650 895.813v57.667l49.997 28.836v-57.667L1650 895.813ZM1699.997 982.316 1750 953.48v-57.667l-50.003 28.836v57.667Z" stroke-width=".46666199999999997"/><path d="m1650 895.813 49.997-28.83 50.003 28.83-50.003 28.836L1650 895.813Z" stroke-width=".46666199999999997"/></g><g fill="none"><path d="M1750 895.813v57.667l49.997 28.836v-57.667L1750 895.813ZM1799.997 982.316 1850 953.48v-57.667l-50.003 28.836v57.667Z" stroke-width=".46666199999999997"/><path d="m1750 895.813 49.997-28.83 50.003 28.83-50.003 28.836L1750 895.813Z" stroke-width=".46666199999999997"/></g><g fill="none"><path d="M1850 895.813v57.667l49.997 28.836v-57.667L1850 895.813ZM1899.997 982.316 1950 953.48v-57.667l-50.003 28.836v57.667Z" stroke-width=".46666199999999997"/><path d="m1850 895.813 49.997-28.83 50.003 28.83-50.003 28.836L1850 895.813Z" stroke-width=".46666199999999997"/></g><g fill="none"><path d="M1950 895.813v57.667l49.997 28.836v-57.667L1950 895.813ZM1999.997 982.316 2050 953.48v-57.667l-50.003 28.836v57.667Z" stroke-width=".46666199999999997"/><path d="m1950 895.813 49.997-28.83 50.003 28.83-50.003 28.836L1950 895.813Z" stroke-width=".46666199999999997"/></g><g fill="none"><path d="M0 982.48v57.667l49.997 28.835v-57.666L0 982.48ZM49.997 1068.982 100 1040.147V982.48l-50.003 28.836v57.666Z" stroke-width=".46666199999999997"/><path d="m0 982.48 49.997-28.83L100 982.48l-50.003 28.836L0 982.48Z" stroke-width=".46666199999999997"/></g><g fill-rule="evenodd"><path d="M100 982.48v57.667l49.997 28.835v-57.666L100 982.48Z" fill="#4c4e72ac" stroke-width=".46666199999999997"/><path d="M149.997 1068.982 200 1040.147V982.48l-50.003 28.836v57.666Z" fill="#4c4e7279" stroke-width=".46666199999999997"/><path d="m100 982.48 49.997-28.83L200 982.48l-50.003 28.836L100 982.48Z" fill="#4c4e723c" stroke-width=".46666199999999997"/></g><g fill="none"><path d="M200 982.48v57.667l49.997 28.835v-57.666L200 982.48ZM249.997 1068.982 300 1040.147V982.48l-50.003 28.836v57.666Z" stroke-width=".46666199999999997"/><path d="m200 982.48 49.997-28.83L300 982.48l-50.003 28.836L200 982.48Z" stroke-width=".46666199999999997"/></g><g fill="none"><path d="M300 982.48v57.667l49.997 28.835v-57.666L300 982.48ZM349.997 1068.982 400 1040.147V982.48l-50.003 28.836v57.666Z" stroke-width=".46666199999999997"/><path d="m300 982.48 49.997-28.83L400 982.48l-50.003 28.836L300 982.48Z" stroke-width=".46666199999999997"/></g><g fill="none"><path d="M400 982.48v57.667l49.997 28.835v-57.666L400 982.48ZM449.997 1068.982 500 1040.147V982.48l-50.003 28.836v57.666Z" stroke-width=".46666199999999997"/><path d="m400 982.48 49.997-28.83L500 982.48l-50.003 28.836L400 982.48Z" stroke-width=".46666199999999997"/></g><g fill="none"><path d="M500 982.48v57.667l49.997 28.835v-57.666L500 982.48ZM549.997 1068.982 600 1040.147V982.48l-50.003 28.836v57.666Z" stroke-width=".46666199999999997"/><path d="m500 982.48 49.997-28.83L600 982.48l-50.003 28.836L500 982.48Z" stroke-width=".46666199999999997"/></g><g fill="none"><path d="M600 982.48v57.667l49.997 28.835v-57.666L600 982.48ZM649.997 1068.982 700 1040.147V982.48l-50.003 28.836v57.666Z" stroke-width=".46666199999999997"/><path d="m600 982.48 49.997-28.83L700 982.48l-50.003 28.836L600 982.48Z" stroke-width=".46666199999999997"/></g><g fill="none"><path d="M700 982.48v57.667l49.997 28.835v-57.666L700 982.48ZM749.997 1068.982 800 1040.147V982.48l-50.003 28.836v57.666Z" stroke-width=".46666199999999997"/><path d="m700 982.48 49.997-28.83L800 982.48l-50.003 28.836L700 982.48Z" stroke-width=".46666199999999997"/></g><g fill="none"><path d="M800 982.48v57.667l49.997 28.835v-57.666L800 982.48ZM849.997 1068.982 900 1040.147V982.48l-50.003 28.836v57.666Z" stroke-width=".46666199999999997"/><path d="m800 982.48 49.997-28.83L900 982.48l-50.003 28.836L800 982.48Z" stroke-width=".46666199999999997"/></g><g fill="none"><path d="M900 982.48v57.667l49.997 28.835v-57.666L900 982.48ZM949.997 1068.982l50.003-28.835V982.48l-50.003 28.836v57.666Z" stroke-width=".46666199999999997"/><path d="m900 982.48 49.997-28.83L1000 982.48l-50.003 28.836L900 982.48Z" stroke-width=".46666199999999997"/></g><g fill-rule="evenodd"><path d="M1000 982.48v57.667l49.997 28.835v-57.666L1000 982.48Z" fill="#4c4e7283" stroke-width=".46666199999999997"/><path d="m1049.997 1068.982 50.003-28.835V982.48l-50.003 28.836v57.666Z" fill="#4c4e725c" stroke-width=".46666199999999997"/><path d="m1000 982.48 49.997-28.83L1100 982.48l-50.003 28.836L1000 982.48Z" fill="#4c4e722e" stroke-width=".46666199999999997"/></g><g fill="none"><path d="M1100 982.48v57.667l49.997 28.835v-57.666L1100 982.48ZM1149.997 1068.982l50.003-28.835V982.48l-50.003 28.836v57.666Z" stroke-width=".46666199999999997"/><path d="m1100 982.48 49.997-28.83L1200 982.48l-50.003 28.836L1100 982.48Z" stroke-width=".46666199999999997"/></g><g fill="none"><path d="M1200 982.48v57.667l49.997 28.835v-57.666L1200 982.48ZM1249.997 1068.982l50.003-28.835V982.48l-50.003 28.836v57.666Z" stroke-width=".46666199999999997"/><path d="m1200 982.48 49.997-28.83L1300 982.48l-50.003 28.836L1200 982.48Z" stroke-width=".46666199999999997"/></g><g fill-rule="evenodd"><path d="M1300 982.48v57.667l49.997 28.835v-57.666L1300 982.48Z" fill="#4c4e72e6" stroke-width=".46666199999999997"/><path d="m1349.997 1068.982 50.003-28.835V982.48l-50.003 28.836v57.666Z" fill="#4c4e72a1" stroke-width=".46666199999999997"/><path d="m1300 982.48 49.997-28.83L1400 982.48l-50.003 28.836L1300 982.48Z" fill="#4c4e7250" stroke-width=".46666199999999997"/></g><g fill-rule="evenodd"><path d="M1400 982.48v57.667l49.997 28.835v-57.666L1400 982.48Z" fill="#4c4e72a3" stroke-width=".46666199999999997"/><path d="m1449.997 1068.982 50.003-28.835V982.48l-50.003 28.836v57.666Z" fill="#4c4e7272" stroke-width=".46666199999999997"/><path d="m1400 982.48 49.997-28.83L1500 982.48l-50.003 28.836L1400 982.48Z" fill="#4c4e7239" stroke-width=".46666199999999997"/></g><g fill-rule="evenodd"><path d="M1500 982.48v57.667l49.997 28.835v-57.666L1500 982.48Z" fill="#4c4e723b" stroke-width=".46666199999999997"/><path d="m1549.997 1068.982 50.003-28.835V982.48l-50.003 28.836v57.666Z" fill="#4c4e722a" stroke-width=".46666199999999997"/><path d="m1500 982.48 49.997-28.83L1600 982.48l-50.003 28.836L1500 982.48Z" fill="#4c4e7215" stroke-width=".46666199999999997"/></g><g fill-rule="evenodd"><path d="M1600 982.48v57.667l49.997 28.835v-57.666L1600 982.48Z" fill="#4c4e72f6" stroke-width=".46666199999999997"/><path d="m1649.997 1068.982 50.003-28.835V982.48l-50.003 28.836v57.666Z" fill="#4c4e72ac" stroke-width=".46666199999999997"/><path d="m1600 982.48 49.997-28.83L1700 982.48l-50.003 28.836L1600 982.48Z" fill="#4c4e7256" stroke-width=".46666199999999997"/></g><g fill="none"><path d="M1700 982.48v57.667l49.997 28.835v-57.666L1700 982.48ZM1749.997 1068.982l50.003-28.835V982.48l-50.003 28.836v57.666Z" stroke-width=".46666199999999997"/><path d="m1700 982.48 49.997-28.83L1800 982.48l-50.003 28.836L1700 982.48Z" stroke-width=".46666199999999997"/></g><g fill-rule="evenodd"><path d="M1800 982.48v57.667l49.997 28.835v-57.666L1800 982.48Z" fill="#4c4e720a" stroke-width=".46666199999999997"/><path d="m1849.997 1068.982 50.003-28.835V982.48l-50.003 28.836v57.666Z" fill="#4c4e7207" stroke-width=".46666199999999997"/><path d="m1800 982.48 49.997-28.83L1900 982.48l-50.003 28.836L1800 982.48Z" fill="#4c4e7204" stroke-width=".46666199999999997"/></g><g fill-rule="evenodd"><path d="M1900 982.48v57.667l49.997 28.835v-57.666L1900 982.48Z" fill="#4c4e7257" stroke-width=".46666199999999997"/><path d="m1949.997 1068.982 50.003-28.835V982.48l-50.003 28.836v57.666Z" fill="#4c4e723d" stroke-width=".46666199999999997"/><path d="m1900 982.48 49.997-28.83L2000 982.48l-50.003 28.836L1900 982.48Z" fill="#4c4e721f" stroke-width=".46666199999999997"/></g></g><defs><radialGradient id="a"><stop offset="0" stop-color="#fff"/><stop offset="1" stop-color="#fff" stop-opacity="0"/></radialGradient></defs></svg>